<?xml version="1.0" standalone="no"?><!DOCTYPE svg PUBLIC "-//W3C//DTD SVG 1.1//EN" "http://www.w3.org/Graphics/SVG/1.1/DTD/svg11.dtd"><svg t="1761560894367" class="icon" viewBox="0 0 1024 1024" version="1.1" xmlns="http://www.w3.org/2000/svg" p-id="34992" xmlns:xlink="http://www.w3.org/1999/xlink" width="48" height="48"><path d="M902.784 36.992c52.928 0 96 43.072 96 96v758.016c0 52.928-43.072 96-96 96H121.216c-52.928 0-96-43.072-96-96V132.992c0-52.928 43.072-96 96-96h781.568z m0 64H121.216a32 32 0 0 0-32 32v758.016c0 17.6 14.4 32 32 32h781.568c17.6 0 32-14.4 32-32V132.992a32 32 0 0 0-32-32zM512 254.528a32 32 0 0 1 32 32v193.408l193.472 0.064a32 32 0 0 1 0 64H544v193.536a32 32 0 0 1-64 0V543.936L286.464 544a32 32 0 0 1 0-64H480V286.464a32 32 0 0 1 32-32z" p-id="34993" fill="#8a8a8a"></path></svg>